<?xml version="1.0" encoding="utf-8"?>
<!-- Generator: Adobe Illustrator 26.1.0, SVG Export Plug-In . SVG Version: 6.00 Build 0)  -->
<svg version="1.1" xmlns="http://www.w3.org/2000/svg" xmlns:xlink="http://www.w3.org/1999/xlink" x="0px" y="0px"
	 viewBox="0 0 1920 1080" style="enable-background:new 0 0 1920 1080;" xml:space="preserve">
<style type="text/css">
	.st0{fill:white;}
	.st1{font-family:'Algerian';}
	.st2{font-size:80px;}
</style>
<g id="Layer_1">
</g>
<g id="Layer_2">
	<g>
		<g>
			<path d="M1057.28,687.12c-20.78-32.46-41.53-64.31-61.71-96.52c-41.9-66.87-80.32-135.7-112.48-207.79
				c-15.66-35.1-28.97-71.26-43.41-106.91c-2.4-5.92-2.01-11.25,1.92-16.43c2.18-2.88,3.85-6.14,6.55-10.51
				C906.63,400.94,980.42,543.34,1075.47,675c5.09-3.44,9.05-6.12,13.01-8.81c5.39-3.66,5.76-3.55,8.54,3.05
				c-4.93,3.4-9.95,6.86-14.75,10.18c3.35,4.92,6.5,9.62,9.72,14.26c4.2,6.06,8.56,12.01,12.66,18.13
				c4.86,7.25,9.48,14.65,14.28,21.94c6.97,10.6,13.92,21.21,21.03,31.72c7.75,11.45,15.67,22.78,23.5,34.18
				c4.13,6.01,8.3,11.99,12.28,18.1c1.86,2.86,0.15,9.01-2.75,11.03c-2.6,1.81-5.14,3.72-7.82,5.39c-1.5,0.93-3.18,1.65-4.88,2.14
				c-1.63,0.47-3.39,0.5-4.91,0.7c-31.58-47.34-63.21-94.76-94.89-142.25c-4.36,2.67-8.47,5.11-12.5,7.68
				c-2.07,1.32-3.69,2.64-5.74-0.35c-2.15-3.14-0.43-4.34,1.86-5.85C1048.12,693.59,1052.03,690.78,1057.28,687.12z"/>
			<path d="M857.88,687.36c20.78-32.46,41.53-64.31,61.71-96.52c41.9-66.87,80.32-135.7,112.48-207.79
				c15.66-35.1,28.97-71.26,43.41-106.91c2.4-5.92,2.01-11.25-1.92-16.43c-2.18-2.88-3.85-6.14-6.55-10.51
				c-58.49,151.98-132.27,294.38-227.32,426.04c-5.09-3.44-9.05-6.12-13.01-8.81c-5.39-3.66-5.76-3.55-8.54,3.05
				c4.93,3.4,9.95,6.86,14.75,10.18c-3.35,4.92-6.5,9.62-9.72,14.26c-4.2,6.06-8.56,12.01-12.66,18.13
				c-4.86,7.25-9.48,14.65-14.28,21.94c-6.97,10.6-13.92,21.21-21.03,31.72c-7.75,11.45-15.67,22.78-23.5,34.18
				c-4.13,6.01-8.3,11.99-12.28,18.1c-1.86,2.86-0.15,9.01,2.75,11.03c2.6,1.81,5.14,3.72,7.82,5.39c1.5,0.93,3.18,1.65,4.88,2.14
				c1.63,0.47,3.39,0.5,4.91,0.7c31.58-47.34,63.21-94.76,94.89-142.25c4.36,2.67,8.47,5.11,12.5,7.68
				c2.07,1.32,3.69,2.64,5.74-0.35c2.15-3.14,0.43-4.34-1.86-5.85C867.04,693.82,863.14,691.01,857.88,687.36z"/>
			<path d="M947.06,693.63c-0.45-38.53-1.21-76.55-1.29-114.56c-0.16-78.91,3.66-157.64,14.52-235.83
				c5.29-38.07,13.13-75.79,19.74-113.68c1.1-6.29,4.24-10.61,10.32-12.93c3.37-1.29,6.52-3.17,11.12-5.45
				c-30.8,159.91-43.56,319.78-32.58,481.8c6.14-0.23,10.92-0.4,15.7-0.59c6.51-0.25,6.76,0.04,5.64,7.1
				c-5.98,0.28-12.07,0.56-17.9,0.83c0.24,5.95,0.43,11.6,0.7,17.24c0.36,7.36,0.91,14.72,1.15,22.08
				c0.29,8.72,0.29,17.45,0.5,26.17c0.31,12.68,0.59,25.36,1.06,38.04c0.51,13.82,1.25,27.62,1.86,41.44
				c0.32,7.28,0.7,14.57,0.84,21.86c0.07,3.42-4.64,7.73-8.17,7.91c-3.16,0.16-6.33,0.43-9.49,0.43c-1.76,0-3.58-0.28-5.27-0.77
				c-1.63-0.47-3.14-1.37-4.54-2c-1.74-56.88-3.49-113.85-5.23-170.91c-5.11-0.04-9.89-0.15-14.67-0.1
				c-2.46,0.03-4.53,0.29-4.69-3.33c-0.16-3.8,1.93-3.91,4.67-3.98C935.87,694.27,940.67,693.95,947.06,693.63z"/>
		</g>
		<rect x="521.5" y="889.88" class="st0" width="884.5" height="58.12"/>
		<text transform="matrix(1 0 0 1 521.5 943.2344)" class="st1 st2">AstralRealmStudios</text>
	</g>
</g>
</svg>
